<svg aria-hidden="true" style="position:absolute;width:0;height:0;overflow:hidden" xmlns="http://www.w3.org/2000/svg">
  <defs>
    <symbol id="icon-star" viewBox="0 0 30 32">
      <path d="M13.707 2.191c.519-1.254 2.289-1.254 2.808 0l3.066 7.403c.219.529.714.89 1.283.936l7.957.641c1.348.109 1.895 1.798.868 2.682l-6.063 5.216a1.532 1.532 0 0 0-.49 1.514l1.852 7.799c.314 1.321-1.117 2.366-2.272 1.658l-6.813-4.179a1.512 1.512 0 0 0-1.585 0L7.505 30.04c-1.154.708-2.586-.336-2.272-1.658l1.852-7.799a1.531 1.531 0 0 0-.49-1.514L.532 13.853c-1.027-.884-.481-2.574.868-2.682l7.958-.641a1.523 1.523 0 0 0 1.283-.936l3.066-7.403z"/>
    </symbol>
    <symbol id="icon-click" viewBox="0 0 24 32">
      <path d="M11.586.368c2.231 0 4.138.779 5.72 2.336s2.372 3.451 2.372 5.683c0 1.275-.276 2.477-.828 3.605s-1.33 2.084-2.336 2.869h-1.251v-1.839c.711-.564 1.257-1.251 1.637-2.06s.57-1.667.57-2.575c0-1.618-.576-2.992-1.729-4.12s-2.538-1.692-4.156-1.692c-1.618 0-3.004.564-4.156 1.692S5.7 6.768 5.7 8.387c0 .907.19 1.766.57 2.575s.926 1.496 1.637 2.06v2.648c-1.373-.711-2.452-1.717-3.237-3.016S3.493 9.932 3.493 8.387c0-2.231.791-4.126 2.372-5.683S9.353.368 11.585.368zm-1.397 30.896a3.032 3.032 0 0 1-2.133-.883L.479 22.804l2.06-2.133c.343-.343.73-.607 1.159-.791s.877-.215 1.343-.092l2.869.662V8.459c0-1.03.356-1.9 1.067-2.611s1.582-1.067 2.611-1.067c1.03 0 1.9.356 2.612 1.067s1.067 1.582 1.067 2.611v6.326h.956c.123 0 .233.024.331.073s.208.098.331.147l5.444 2.648c.589.27 1.024.705 1.306 1.306s.362 1.22.239 1.857l-1.324 8.018c-.123.711-.466 1.293-1.03 1.747s-1.202.68-1.913.68h-9.416zm-.295-2.207H20.23l1.582-9.159-6.731-3.347h-2.023V8.459c0-.441-.135-.797-.405-1.067s-.625-.405-1.067-.405-.797.135-1.067.405c-.27.27-.405.625-.405 1.067v14.676L4.45 21.921l-.846.846 6.29 6.29zm10.336 0z"/>
    </symbol>
    <symbol id="icon-raceta" viewBox="0 0 32 32">
      <path d="m4.838 13.295 4.038 1.714c.457-.914.946-1.816 1.467-2.705s1.073-1.74 1.657-2.552l-3.01-.61-4.152 4.152zm5.867 3.086 5.067 5.067c1.448-.66 2.806-1.41 4.076-2.248s2.298-1.651 3.086-2.438c2.057-2.057 3.568-4.165 4.533-6.324s1.486-4.597 1.562-7.314c-2.718.076-5.156.597-7.314 1.562s-4.267 2.476-6.324 4.533c-.787.787-1.6 1.816-2.438 3.086s-1.587 2.629-2.248 4.076zm8.724-3.657c-.508-.508-.762-1.137-.762-1.886s.254-1.378.762-1.886 1.136-.762 1.886-.762c.749 0 1.378.254 1.886.762s.762 1.136.762 1.886c0 .749-.254 1.378-.762 1.886s-1.136.762-1.886.762-1.378-.254-1.886-.762zm-.572 14.59 4.152-4.152-.61-3.009c-.813.584-1.664 1.136-2.552 1.657s-1.791 1.009-2.705 1.467l1.714 4.038zM31.276.876c.229 3.454-.203 6.603-1.295 9.448s-2.895 5.524-5.41 8.038l-.152.152.838 4.191c.076.381.057.749-.057 1.105s-.311.673-.59.952l-6.514 6.552-3.238-7.543-6.476-6.476-7.543-3.238 6.552-6.514c.279-.279.597-.476.952-.59s.724-.133 1.105-.057l4.19.838c.025-.025.051-.044.076-.057s.051-.032.076-.057c2.514-2.514 5.194-4.324 8.038-5.429S27.822.648 31.276.877zM3.39 21.905c.889-.889 1.975-1.34 3.257-1.352s2.368.425 3.257 1.314c.889.889 1.327 1.974 1.314 3.257s-.463 2.368-1.352 3.257c-.66.66-1.683 1.206-3.067 1.638s-3.46.838-6.229 1.219c.381-2.768.781-4.851 1.2-6.248s.959-2.425 1.619-3.086zm1.6 1.638c-.356.381-.673.978-.952 1.791s-.521 1.854-.724 3.124c1.27-.203 2.311-.444 3.124-.724s1.41-.597 1.79-.952c.483-.432.73-.971.743-1.619s-.21-1.213-.667-1.695c-.483-.457-1.048-.679-1.695-.667s-1.187.26-1.619.743z"/>
    </symbol>
    <symbol id="icon-logo" viewBox="0 0 41 32">
      <path fill="#ffe550" style="fill:var(--color1, #ffe550)" d="M14.121 6.486c1.014-1.989 3.864-1.989 4.878 0l1.263 2.476a2.738 2.738 0 0 0 2.008 1.458l2.759.439c2.203.351 3.082 3.042 1.508 4.62l-1.986 1.991a2.728 2.728 0 0 0-.764 2.349l.436 2.769c.347 2.202-1.957 3.868-3.947 2.854l-2.472-1.259a2.744 2.744 0 0 0-2.489 0l-2.472 1.259c-1.991 1.014-4.295-.652-3.947-2.854l.436-2.769a2.726 2.726 0 0 0-.764-2.349l-1.986-1.991c-1.574-1.577-.695-4.269 1.508-4.62l2.759-.439a2.738 2.738 0 0 0 2.008-1.458l1.263-2.476z"/>
      <path fill="#2c2c2c" style="fill:var(--color2, #2c2c2c)" d="m1.118 20.356-.021.005c.003.074-.001.374-.012.9-.003.524-.005.869-.003 1.033 0 .157-.004.285-.01.384l.001.336c-.002.12-.008.219-.02.296l-.019.206c-.014.13-.042.201-.085.211-.092.022-.236-.049-.432-.212-.198-.17-.312-.319-.342-.446s-.037-1.061-.021-2.8c.023-1.741-.022-2.885-.137-3.434a.421.421 0 0 1 .014-.273c.036-.166.22-.321.553-.467.34-.148.847-.301 1.522-.461.682-.161 1.222-.252 1.623-.272.407-.022.626.031.656.159.02.085-.026.159-.138.223s-.212.117-.299.161l-.35.139c-.146.049-.281.096-.405.141a10.6 10.6 0 0 0-.49.161c-.194.068-.373.133-.539.195-.167.055-.392.134-.675.238s-.466.17-.549.197c.012.02.023.051.033.093.079.333.121 1.131.127 2.393.445-.083.915-.205 1.409-.367.501-.163.809-.259.922-.286.27-.064.418-.039.445.074.052.22-.213.477-.796.772a8.743 8.743 0 0 1-1.96.699zM8.071 18.397a2.015 2.015 0 0 0-.278-.652c-.13-.201-.281-.334-.454-.397-.458.251-.791.729-.999 1.437-.202.699-.239 1.32-.11 1.866s.344.853.646.924c.488-.22.839-.67 1.053-1.349.22-.688.267-1.297.141-1.828zm-2.779.758a4.08 4.08 0 0 1 .648-1.589c.319-.457.688-.735 1.107-.834.426-.101.824-.004 1.193.29.368.287.613.689.735 1.206.121.51.12 1.063-.001 1.661a3.793 3.793 0 0 1-.719 1.573c-.351.45-.771.732-1.261.848-.362.086-.703-.009-1.023-.285s-.54-.669-.661-1.179c-.122-.517-.128-1.08-.017-1.69zM12.896 17.255a2.015 2.015 0 0 0-.278-.652c-.13-.201-.281-.334-.454-.397-.458.251-.791.729-.999 1.437-.202.699-.239 1.32-.11 1.866s.344.853.646.924c.488-.22.839-.67 1.053-1.349.22-.688.267-1.297.141-1.828zm-2.778.758a4.08 4.08 0 0 1 .648-1.589c.319-.457.688-.735 1.107-.834.426-.101.824-.004 1.193.29.368.287.613.689.735 1.206.121.51.12 1.064-.001 1.661a3.793 3.793 0 0 1-.719 1.573c-.351.45-.771.732-1.261.848-.362.086-.703-.009-1.023-.285s-.54-.669-.661-1.179c-.122-.517-.128-1.08-.017-1.69zM17.933 11.014c.114-.027.277.047.491.22.219.165.35.34.394.524s.079.729.106 1.635c.025.899.029 1.837.013 2.813-.022 2.189-.115 3.303-.278 3.342-.099.023-.224-.011-.373-.102-.144-.101-.227-.197-.248-.289s-.04-.282-.056-.57c-.528.873-1.052 1.371-1.57 1.493-.312.074-.63-.001-.953-.223-.315-.225-.509-.489-.581-.794-.104-.439-.11-.987-.018-1.645.097-.666.311-1.3.641-1.902s.747-.962 1.251-1.081c.504-.119.927.099 1.268.654.007-1.587-.075-2.821-.245-3.7-.05-.213.003-.337.159-.374zm.062 5.494c-.09-.382-.234-.689-.431-.919-.19-.232-.377-.326-.562-.282-.305.072-.573.334-.804.785s-.384.944-.46 1.478c-.071.525-.064.965.02 1.319.03.128.101.219.211.275s.23.069.358.039c.277-.066.603-.352.978-.86a3.562 3.562 0 0 0 .701-1.647l.002-.135-.013-.053zM24.793 15.864c.137.581-.01 1.132-.441 1.653a3.04 3.04 0 0 1-1.672 1.013c-.674.16-1.273.118-1.795-.125-.524-.25-.823-.531-.896-.842-.05-.212-.011-.334.116-.364.114-.027.377.09.792.351.156.09.353.163.592.219.245.054.488.053.73-.004a2.394 2.394 0 0 0 1.23-.695c.33-.347.46-.67.39-.967-.045-.191-.231-.405-.557-.642s-.676-.45-1.05-.638c-.369-.197-.717-.417-1.045-.661s-.512-.455-.554-.632c-.042-.177-.051-.373-.027-.588s.068-.379.131-.491c.205-.37.568-.752 1.09-1.144.529-.394.992-.639 1.39-.733.206-.049.396-.023.57.078s.278.226.313.375c.017.071-.044.145-.183.223s-.353.188-.641.331a5.218 5.218 0 0 0-.744.423c-.743.505-1.08.902-1.011 1.193.037.156.555.493 1.555 1.012a5.28 5.28 0 0 1 1.091.763c.348.299.557.597.628.895zM27.238 16.396c.032.135.126.183.282.146.27-.064.579-.215.927-.455.354-.248.552-.377.594-.387.128-.03.208.022.239.156.049.205-.108.493-.471.863-.355.368-.707.594-1.055.676-.341.081-.647.056-.917-.075-.272-.137-.432-.305-.479-.504s-.064-.46-.051-.785c.012-.332.036-.768.073-1.308.043-.549.071-1 .084-1.355-.315.157-.53.249-.643.276s-.241-.003-.381-.089c-.135-.095-.215-.196-.24-.302-.04-.17.383-.442 1.269-.816a7.588 7.588 0 0 0-.178-1.607c-.05-.213-.004-.335.138-.369.121-.029.288.014.503.128.213.107.342.256.387.447s.064.542.058 1.052c.396-.131.715-.225.957-.282.426-.101.661-.059.704.125.025.106-.071.223-.289.349-.21.125-.667.349-1.371.672-.017.595-.053 1.28-.11 2.057-.058.769-.069 1.232-.032 1.387zM32.002 10.826c.319-.076.653.018.999.28.345.255.549.513.611.775.06.255.033.538-.08.849.11.086.175.168.193.246.047.198.081.549.103 1.053.029.502.05.83.064.983a3.4 3.4 0 0 1 .05.639c.013.184-.03.287-.129.311-.128.03-.26-.054-.397-.254-.132-.208-.246-.488-.344-.838-.443.95-.934 1.489-1.473 1.616-.327.077-.682.016-1.067-.185-.379-.209-.604-.463-.675-.76-.101-.425-.068-.986.097-1.683.163-.704.436-1.36.817-1.966s.792-.962 1.232-1.066zm.932 1.754c-.156-.659-.365-.957-.628-.895-.277.066-.553.34-.828.824-.277.477-.485.994-.623 1.55s-.173.98-.105 1.27c.028.12.102.208.219.262a.609.609 0 0 0 .377.023c.334-.079.657-.391.971-.937.312-.552.473-1.17.484-1.853-.004-.111.041-.189.136-.234l-.002-.011z"/>
      <path fill="#bbf330" style="fill:var(--color3, #bbf330)" d="M30.75 19.975a.917.917 0 0 0-.644.603c-1.907 5.652-7.247 9.717-13.529 9.717a14.22 14.22 0 0 1-9.835-3.933.922.922 0 0 0-.853-.234c-.64.159-.883.932-.409 1.39a15.924 15.924 0 0 0 11.097 4.483c7.079 0 13.084-4.605 15.186-10.986.206-.626-.372-1.198-1.013-1.04zM1.865 14.148a.908.908 0 0 0 .668-.725C3.745 6.754 9.577 1.705 16.578 1.705c4.553 0 8.612 2.135 11.227 5.463a.91.91 0 0 0 .93.33c.585-.145.85-.823.481-1.298C26.291 2.428 21.718 0 16.578 0 8.695 0 2.145 5.71.831 13.224c-.104.593.448 1.07 1.034.925zM40.615 5.331c-3.778 7.241-5.437 2.465-10.755 5.271.532-8.406 6.165-3.291 10.755-5.271z"/>
    </symbol>
  </defs>

<symbol id="icon-stars" viewBox="0 0 180 32">
<path fill="#ffe550" style="fill: var(--color1, #ffe550)" d="M13.707 2.191c0.519-1.254 2.289-1.254 2.808 0l3.066 7.403c0.219 0.529 0.714 0.89 1.283 0.936l7.957 0.641c1.348 0.109 1.895 1.798 0.868 2.682l-6.063 5.216c-0.433 0.373-0.622 0.957-0.49 1.514l1.852 7.799c0.314 1.321-1.117 2.366-2.272 1.658l-6.813-4.179c-0.487-0.299-1.099-0.299-1.585 0l-6.813 4.179c-1.154 0.708-2.586-0.336-2.272-1.658l1.852-7.799c0.132-0.557-0.057-1.142-0.49-1.514l-6.063-5.216c-1.027-0.884-0.481-2.574 0.868-2.682l7.958-0.641c0.568-0.046 1.064-0.407 1.283-0.936l3.066-7.403z"></path>
<path fill="#ffe550" style="fill: var(--color1, #ffe550)" d="M51.041 2.191c0.519-1.254 2.289-1.254 2.808 0l3.066 7.403c0.219 0.529 0.714 0.89 1.283 0.936l7.957 0.641c1.348 0.109 1.895 1.798 0.868 2.682l-6.063 5.216c-0.433 0.373-0.622 0.957-0.49 1.514l1.852 7.799c0.314 1.321-1.117 2.366-2.272 1.658l-6.813-4.179c-0.487-0.299-1.099-0.299-1.585 0l-6.813 4.179c-1.154 0.708-2.586-0.336-2.272-1.658l1.852-7.799c0.132-0.557-0.057-1.142-0.49-1.514l-6.063-5.216c-1.027-0.884-0.481-2.574 0.868-2.682l7.958-0.641c0.568-0.046 1.063-0.407 1.282-0.936l3.066-7.403z"></path>
<path fill="#ffe550" style="fill: var(--color1, #ffe550)" d="M88.374 2.191c0.519-1.254 2.289-1.254 2.808 0l3.066 7.403c0.219 0.529 0.714 0.89 1.283 0.936l7.957 0.641c1.348 0.109 1.895 1.798 0.868 2.682l-6.063 5.216c-0.433 0.373-0.622 0.957-0.49 1.514l1.852 7.799c0.314 1.321-1.117 2.366-2.272 1.658l-6.813-4.179c-0.487-0.299-1.099-0.299-1.585 0l-6.813 4.179c-1.154 0.708-2.586-0.336-2.272-1.658l1.852-7.799c0.132-0.557-0.057-1.142-0.49-1.514l-6.063-5.216c-1.027-0.884-0.481-2.574 0.868-2.682l7.958-0.641c0.568-0.046 1.063-0.407 1.282-0.936l3.066-7.403z"></path>
<path fill="#ffe550" style="fill: var(--color1, #ffe550)" d="M125.707 2.191c0.519-1.254 2.289-1.254 2.808 0l3.066 7.403c0.219 0.529 0.714 0.89 1.283 0.936l7.958 0.641c1.348 0.109 1.895 1.798 0.868 2.682l-6.063 5.216c-0.433 0.373-0.622 0.957-0.49 1.514l1.852 7.799c0.314 1.321-1.117 2.366-2.272 1.658l-6.813-4.179c-0.487-0.299-1.099-0.299-1.585 0l-6.813 4.179c-1.154 0.708-2.586-0.336-2.272-1.658l1.852-7.799c0.132-0.557-0.057-1.142-0.49-1.514l-6.063-5.216c-1.027-0.884-0.481-2.574 0.868-2.682l7.958-0.641c0.568-0.046 1.063-0.407 1.282-0.936l3.066-7.403z"></path>
<path fill="#ffe550" style="fill: var(--color1, #ffe550)" d="M163.041 2.191c0.519-1.254 2.289-1.254 2.808 0l3.066 7.403c0.219 0.529 0.714 0.89 1.283 0.936l7.958 0.641c1.348 0.109 1.895 1.798 0.868 2.682l-6.063 5.216c-0.433 0.373-0.622 0.957-0.49 1.514l1.852 7.799c0.314 1.321-1.117 2.366-2.272 1.658l-6.813-4.179c-0.487-0.299-1.099-0.299-1.585 0l-6.813 4.179c-1.154 0.708-2.586-0.336-2.272-1.658l1.852-7.799c0.132-0.557-0.057-1.142-0.49-1.514l-6.063-5.216c-1.027-0.884-0.481-2.574 0.868-2.682l7.958-0.641c0.568-0.046 1.063-0.407 1.282-0.936l3.066-7.403z"></path>
</symbol>
</svg>
